<svg width="15" height="15" viewBox="0 0 15 15" fill="none" xmlns="http://www.w3.org/2000/svg">
<g clip-path="url(#clip0_6314_2882)">
<path d="M13.1846 7.12789C13.1846 7.09989 13.173 7.07423 13.1496 7.05089C13.1263 7.02756 13.1006 7.01589 13.0726 7.01589L10.7346 4.67789C10.6413 4.59389 10.534 4.55189 10.4126 4.55189C10.2913 4.55189 10.184 4.59389 10.0906 4.67789C9.99729 4.76189 9.95296 4.86923 9.95763 4.99989C9.96229 5.13056 10.0066 5.23789 10.0906 5.32189L11.6726 6.90389H1.10263C0.981292 6.90389 0.873958 6.94589 0.780625 7.02989C0.687292 7.11389 0.640625 7.22823 0.640625 7.37289C0.640625 7.51756 0.682625 7.62956 0.766625 7.70889C0.850625 7.78823 0.962625 7.82789 1.10263 7.82789H11.7286L10.1466 9.40989C10.0626 9.49389 10.0206 9.59889 10.0206 9.72489C10.0206 9.85089 10.0626 9.96056 10.1466 10.0539C10.1746 10.0819 10.2166 10.1076 10.2726 10.1309C10.3286 10.1542 10.3846 10.1659 10.4406 10.1659C10.4966 10.1659 10.5526 10.1542 10.6086 10.1309C10.6646 10.1076 10.7066 10.0819 10.7346 10.0539L13.0726 7.71589C13.0913 7.69723 13.11 7.67389 13.1286 7.64589C13.1473 7.61789 13.166 7.60389 13.1846 7.60389C13.2126 7.48256 13.2266 7.38923 13.2266 7.32389C13.2266 7.25856 13.2126 7.19323 13.1846 7.12789Z" fill="#212529"/>
</g>
<defs>
<clipPath id="clip0_6314_2882">
<rect width="14" height="14" fill="white" transform="matrix(1 0 0 -1 0.519531 14.3099)"/>
</clipPath>
</defs>
</svg>
